<?xml version="1.0" encoding="UTF-8"?>
<svg xmlns="http://www.w3.org/2000/svg" xmlns:xlink="http://www.w3.org/1999/xlink" viewBox="0 0 2615.43 556">
  <defs>
    <linearGradient id="linear" x1="888.82" y1="344.7" x2="1436.53" y2="344.7" gradientTransform="matrix(1, 0, 0, 1, 0, 0)" gradientUnits="userSpaceOnUse">
      <stop offset="0" stop-color="#fff" />
      <stop offset="1" stop-color="#30f4ff" />
    </linearGradient>
  </defs>
  <g>
    <path d="M226.32,0h8.18c35.32,1.07,70.43,10.12,101.58,26.87,20.65,11,39.54,25.26,55.92,41.95,23.06-23.54,51.19-42.13,82.01-53.84,23.48-9.08,48.49-13.8,73.6-14.98h13.9c35.32,1.07,70.42,10.12,101.58,26.87,30.52,16.27,57.23,39.6,77.52,67.61,21.34,29.32,35.49,63.83,40.84,99.7,3.39,20.76,2.41,41.85,2.55,62.8-.02,81.66,.04,163.33-.03,245-.18,21.49-14.89,41.82-35.17,48.86-12.4,4.74-25.87,2.72-38.81,3.17-13.94,.58-28.07-4.28-38.38-13.73-8.45-7.64-14.44-18.01-16.59-29.21-1.38-6.6-.96-13.37-1.02-20.06,.04-81.66-.1-163.32-.06-244.99-.1-12.71,.66-25.59-2.2-38.09-6.08-29.59-26.81-55.6-54.13-68.42-22.17-10.61-48.37-12.42-71.78-4.89-30.6,9.47-55.63,34.88-64.61,65.63-3.36,10.91-4.4,22.39-4.17,33.76,.06,88.34-.11,176.68-.04,265.03,.08,6.4-.76,12.86-2.88,18.92-5.25,15.65-18.22,28.43-33.95,33.44-11.98,4.05-24.78,2.15-37.17,2.61-13.91,.58-28.03-4.25-38.34-13.68-12.46-10.98-18.79-27.87-17.68-44.34,.05-88.99-.08-177.99-.06-266.98,.12-21.68-7.09-43.33-20.39-60.46-15.07-19.73-37.84-33.42-62.39-37.26-23.34-3.88-48.01,1.18-67.98,13.85-19.13,11.99-33.93,30.74-41.02,52.18-3.67,10.83-5.23,22.29-5.09,33.7,.03,89.99-.09,179.99-.07,269.98,.2,21.53-14.18,42.15-34.38,49.54-12.93,5.2-27.09,2.98-40.64,3.47-16.47,.54-32.99-6.97-43.2-19.94-7.05-8.61-11.05-19.49-11.77-30.56V222.41c.81-24.98,5.41-49.87,14.15-73.31C31.33,102.44,64.32,61.86,106.37,35.35,142.01,12.66,184.09,.36,226.32,0Z" />
    <path d="M1131.68,12.65c10.18-5.29,22.06-6.77,33.31-4.76,9.21-.1,18.63,.92,26.98,5.1,12.06,5.62,21.56,15.95,27.1,27.96,70.12,140.24,140.28,280.45,210.4,420.68,4.25,8.46,6.55,17.91,6.49,27.39,.04,18.24-8.82,36.63-24.14,46.83-7.67,4.8-15.79,8.84-23.64,13.33-6.67,3.85-14.18,6.07-21.82,6.82h-6.66c-13.44-1.06-26.35-7.32-35.43-17.29-4.89-5.12-8.37-11.35-11.41-17.68-50.2-100.37-100.36-200.75-150.62-301.09-49.2,98.25-98.32,196.56-147.49,294.83-3.82,7.58-7.29,15.52-13.08,21.86-11.52,13.36-29.98,20.69-47.51,17.71-12.65-1.86-23.02-9.84-34.15-15.47-10.69-5.35-19.69-14.09-24.89-24.9-8.16-16.32-8.06-36.39,.09-52.69,70.44-140.9,140.94-281.78,211.4-422.67,5.32-11.02,14.1-20.44,25.07-25.96Z" />
    <path d="M1580.02,8.94c9.09-2.7,18.64-1.78,27.99-1.94,116.64,0,233.28-.01,349.93,.01,15.09-.04,29.99,6.8,39.87,18.2,9.11,10.25,13.76,24.11,13.2,37.77-.46,12.67,1.51,25.82-2.89,38.02-5.49,16.35-19.44,29.52-36.07,34.04-9.42,2.8-19.33,1.76-29,1.96-34.02,0-68.03-.01-102.05,0-.02,121.69,.04,243.38-.03,365.07-.27,17.15-9.56,33.76-23.9,43.11-9.65,6.5-21.44,9.35-33,8.83-12.34-.41-25.12,1.43-36.99-2.86-17.39-5.78-31.12-21.19-34.86-39.13-1.62-6.9-1.17-14.03-1.22-21.06,0-117.99,.01-235.97,0-353.96-38.35,0-76.68-.01-115.02,.01-7.98,.16-16.01-1.31-23.3-4.58-15.29-6.7-26.99-20.99-30.45-37.33-1.76-7.57-1.11-15.39-1.23-23.08,.07-8.71-.59-17.61,1.96-26.06,4.8-17.67,19.37-32.25,37.06-37.02Z" />
    <path d="M2217.75,43.74c57.7-33.64,128.09-45.12,193.35-30.52,56.89,12.45,109,44.71,146.23,89.4,34.22,40.89,56.48,92.72,57.99,146.36,.55,12.18-.96,24.56-5.42,35.96-5.68,14.83-16.14,27.8-29.55,36.32-13.11,8.46-28.79,12.55-44.33,12.47-104.92,.01-209.84,0-314.76,0,6.15,27.99,24.48,52.11,47.25,68.93,26.49,19.63,59.42,30.67,92.45,30.12,19.15-.16,38.37-1.85,57.02-6.36,12.82-3.17,25.49-7.65,36.58-14.94,13.28-8.54,28.45-14.79,44.39-15.46,18.1-1.05,36.84,5.35,49.56,18.49,11.28,11.36,17.17,27.63,16.22,43.57-.38,14.62-6.25,28.87-15.94,39.77-9.15,10.48-20.74,18.56-33.19,24.63-23.72,12.03-49.46,19.64-75.54,24.51-31.98,5.73-64.6,7.93-97.06,6.62-61.03-2.88-121.06-26.21-167.27-66.31-26.01-22.43-47.73-49.82-63.58-80.29-35.42-67.64-41.12-150.36-14.27-221.94,21.88-59.17,65.26-109.87,119.87-141.33Zm106.24,85.85c-31.99,7.47-61.09,26.44-81.13,52.44-10.2,13.35-18.22,28.68-21.58,45.25,88.88-.03,177.75,0,266.62-.02-1.39-8.49-4.01-16.76-7.65-24.54-11.02-23.43-29.9-42.66-51.95-55.97-30.87-18.69-69.07-25.38-104.31-17.16Z" />
  </g>
  <path d="M1379.51,407.88h-434c-75.51,1.14-75.64-127.52,0-126.37h434c31.18,0,56.45,25.28,56.45,56.45,4.58,35.34-18.89,70.27-56.45,69.91Z" fill="url(#linear)" />
</svg>